#!OML:ASF E:\acrobat2\Project_11_07_03\Capture day 1\Session 1\Acrobat.ASF
:FULLY-SPECIFIED
:DEGREES
241
root 10.4552 14.5854 20.7815 240.003 -48.7028 136.813
lowerback 47.5763 -8.23646 6.13724
upperback 13.1059 -9.77026 5.14032
thorax -4.88132 -5.76831 6.51146
lowerneck -6.66166 0.575048 -9.22353
upperneck 6.43302 1.32604 4.4298
head 3.23161 0.59126 3.21976
rclavicle -6.52014e-014 -5.01931e-014
rhumerus 4.38549 26.2885 -67.4459
rradius 78.2063
rwrist -22.1023
rhand -12.7719 -33.8722
rfingers 7.12502
rthumb 13.313 -63.4269
lclavicle -6.52014e-014 -5.01931e-014
lhumerus 8.97778 34.8972 59.1752
lradius 11.3743
lwrist 0.0257746
lhand -25.2555 -18.2431
lfingers 7.12502
lthumb 1.26481 11.7329
rfemur -63.1251 -8.13143 0.271814
rtibia 84.3906
rfoot -43.2197 3.68073
rtoes 35.7948
lfemur 143.181 173.189 165.457
ltibia 59.9445
lfoot -22.8611 13.5461
ltoes -67.9532
242
root 10.404 14.3358 21.3871 236.071 -51.8106 141.962
lowerback 45.1248 -9.94661 6.8342
upperback 14.2154 -11.9513 4.28158
thorax -4.40936 -6.70604 5.97835
lowerneck -11.3087 1.86445 -9.19236
upperneck 8.59315 3.4478 4.7347
head 4.17118 1.68076 3.17722
rclavicle -3.97569e-015 9.13913e-014
rhumerus 8.35226 26.6781 -69.1009
rradius 78.1393
rwrist -24.5713
rhand -21.5014 -37.7885
rfingers 7.12502
rthumb 4.89023 -67.7121
lclavicle -3.97569e-015 9.13913e-014
lhumerus 13.0473 25.4587 54.6018
lradius 14.7247
lwrist 12.3369
lhand -24.906 -26.243
lfingers 7.12502
lthumb 1.60232 3.73068
rfemur -66.7473 -7.5612 3.27571
rtibia 88.0974
rfoot -43.1948 3.55719
rtoes 33.611
lfemur 143.362 175.819 163.327
ltibia 52.8138
lfoot -23.4004 15.1364
ltoes -68.4274
243
root 10.3623 14.088 21.9744 231.837 -56.369 148.852
lowerback 41.6762 -12.0282 9.53336
upperback 14.8084 -13.9249 4.47013
thorax -2.99446 -7.58355 5.21126
lowerneck -17.2545 2.67711 -11.6249
upperneck 10.3475 5.41216 6.5462
head 5.42507 2.70303 4.45415
rclavicle 1.19271e-014 -3.4865e-014
rhumerus 12.9196 25.9081 -70.6135
rradius 76.7353
rwrist -34.4525
rhand -24.9808 -35.6427
rfingers 7.12502
rthumb 1.53016 -65.617
lclavicle 1.19271e-014 -3.4865e-014
lhumerus 16.608 15.695 48.7874
lradius 19.8151
lwrist 21.5497
lhand -24.2091 -21.4949
lfingers 7.12502
lthumb 2.27539 8.47273
rfemur -70.8626 -7.21165 7.77963
rtibia 90.7558
rfoot -42.5993 3.48971
rtoes 31.0273
lfemur 135.832 179.062 166.859
ltibia 56.7687
lfoot -20.535 21.1104
ltoes -70.7923
244
root 10.3031 13.8698 22.3984 232.144 -55.5648 151.534
lowerback 36.425 -11.6155 6.41136
upperback 15.0851 -15.021 3.33777
thorax -1.20568 -8.12662 5.11207
lowerneck -18.5938 3.61894 -12.1783
upperneck 9.97245 6.62754 8.73221
head 5.303 3.46886 5.36865
rclavicle -7.31528e-014 1.10922e-013
rhumerus 14.3517 24.8012 -71.0541
rradius 76.0324
rwrist -38.0384
rhand -29.4257 -34.0864
rfingers 7.12502
rthumb -2.76288 -64.0483
lclavicle -7.31528e-014 1.10922e-013
lhumerus 21.1001 5.41205 41.7869
lradius 25.2358
lwrist 25.68
lhand -22.4957 -20.1082
lfingers 7.12502
lthumb 3.93013 9.83529
rfemur -76.2508 -6.77218 6.37088
rtibia 92.7581
rfoot -41.9255 3.18989
rtoes 28.5645
lfemur 129.696 183.042 168.145
ltibia 62.0019
lfoot -19.2939 26.3759
ltoes -71.1503
245
root 10.3727 13.8631 22.7511 232.67 -58.082 151.263
lowerback 36.19 -12.7504 5.07939
upperback 14.5638 -16.6386 3.42613
thorax -1.36399 -8.92468 6.37275
lowerneck -21.3123 3.64837 -14.8723
upperneck 10.313 6.90452 13.6567
head 5.53076 3.91761 7.57798
rclavicle -9.54166e-015 -7.83212e-014
rhumerus 14.69 24.1316 -71.8189
rradius 74.8216
rwrist -35.346
rhand -26.538 -38.3649
rfingers 7.12502
rthumb 0.0260944 -68.3446
lclavicle -9.54166e-015 -7.83212e-014
lhumerus 28.4492 7.63794 42.8091
lradius 25.7064
lwrist 11.984
lhand -22.8094 -13.8587
lfingers 7.12502
lthumb 3.62718 16.0901
rfemur -76.5835 -7.92862 6.76502
rtibia 92.4956
rfoot -42.1277 2.15257
rtoes 24.9572
lfemur 126.507 185.37 170.242
ltibia 66.0888
lfoot -19.1359 32.4643
ltoes -72.1632
246
root 10.381 13.8876 23.112 232.639 -60.4133 152.893
lowerback 33.8287 -12.6542 5.44391
upperback 13.9936 -16.298 3.18005
thorax -1.40488 -8.64078 5.56922
lowerneck -20.2798 3.45961 -13.5018
upperneck 8.79892 5.75035 16.1475
head 5.04763 3.52231 8.01093
rclavicle -2.54444e-014 -5.56597e-014
rhumerus 10.4541 20.2905 -74.2612
rradius 74.0147
rwrist -27.3324
rhand -19.6912 -42.9821
rfingers 7.12502
rthumb 6.63793 -72.858
lclavicle -2.54444e-014 -5.56597e-014
lhumerus 36.1646 5.69655 45.9444
lradius 22.853
lwrist 11.0857
lhand -21.9892 -27.957
lfingers 7.12502
lthumb 4.41919 1.97688
rfemur -77.9009 -8.79138 7.92637
rtibia 91.8436
rfoot -42.428 1.07418
rtoes 21.5908
lfemur 123.713 182.113 171.45
ltibia 66.7669
lfoot -21.96 29.2276
ltoes -72.6169
247
root 10.3341 13.9849 23.4452 232.646 -62.0996 154.355
lowerback 31.0787 -11.992 5.4817
upperback 13.4605 -15.4449 3.03969
thorax -1.14029 -8.14835 4.78122
lowerneck -17.112 3.62338 -11.0262
upperneck 5.48233 5.19684 16.6805
head 3.6867 3.16224 7.47798
rclavicle 8.5875e-014 1.66979e-014
rhumerus 6.0845 18.0999 -75.1153
rradius 72.874
rwrist -25.2342
rhand -20.0778 -37.6891
rfingers 7.12502
rthumb 6.26473 -67.5764
lclavicle 8.5875e-014 1.66979e-014
lhumerus 42.1614 2.38194 51.4384
lradius 24.4782
lwrist 17.9942
lhand -19.4668 -30.3374
lfingers 7.12502
lthumb 6.85451 -0.468334
rfemur -78.6903 -9.7042 8.28592
rtibia 90.6488
rfoot -41.8847 0.502528
rtoes 18.8417
lfemur 121.38 179.027 171.341
ltibia 67.3905
lfoot -22.8524 28.0226
ltoes -73.0195
248
root 10.2568 14.2043 23.6949 231.598 -63.0213 155.307
lowerback 29.9117 -10.9725 4.56916
upperback 13.2965 -14.377 2.879
thorax -1.03426 -7.6408 4.91274
lowerneck -14.3876 3.45621 -8.73841
upperneck 2.54962 4.72308 15.4049
head 2.53214 2.741 6.47325
rclavicle 1.28812e-013 -9.10434e-014
rhumerus 2.04741 17.6328 -74.0433
rradius 72.7702
rwrist -27.7535
rhand -22.2596 -37.2369
rfingers 7.12502
rthumb 4.15813 -67.176
lclavicle 1.28812e-013 -9.10434e-014
lhumerus 45.0826 -4.54891 55.0834
lradius 27.2993
lwrist 23.655
lhand -22.9364 -30.258
lfingers 7.12502
lthumb 3.5045 -0.30709
rfemur -77.0088 -9.75616 7.44683
rtibia 88.18
rfoot -40.2526 -0.0862938
rtoes 16.1079
lfemur 121.097 175.951 169.267
ltibia 67.4869
lfoot -19.4288 30.096
ltoes -73.8054
249
root 10.1576 14.4832 23.9225 231.813 -63.9707 154.892
lowerback 28.5191 -10.183 4.16666
upperback 12.7779 -13.4386 3.17257
thorax -0.933751 -7.17877 4.96183
lowerneck -12.448 2.97113 -6.91898
upperneck 0.760264 4.09197 12.5782
head 1.8511 2.28301 5.1592
rclavicle -1.59028e-014 -5.92378e-014
rhumerus -2.09306 16.6421 -73.3672
rradius 71.9669
rwrist -25.2938
rhand -20.6722 -38.3309
rfingers 7.12502
rthumb 5.69089 -68.2345
lclavicle -1.59028e-014 -5.92378e-014
lhumerus 45.177 -12.9455 56.7942
lradius 32.0498
lwrist 26.4341
lhand -22.491 -30.4137
lfingers 7.12502
lthumb 3.93462 -0.470276
rfemur -74.8666 -10.0614 5.96634
rtibia 85.4328
rfoot -37.9805 -1.08
rtoes 12.7647
lfemur 121.435 175.472 169.128
ltibia 66.6057
lfoot -25.4302 24.9292
ltoes -73.3465
250
root 10.0141 14.8632 24.0374 229.405 -64.9405 154.796
lowerback 29.3932 -9.09824 3.09984
upperback 12.5032 -12.2586 3.68747
thorax -1.38232 -6.68364 5.91936
lowerneck -9.88435 2.56268 -6.03814
upperneck 0.397823 3.55476 10.449
head 1.42944 1.93493 4.27241
rclavicle -9.54166e-015 1.44119e-013
rhumerus -6.73614 16.4712 -72.8857
rradius 69.8137
rwrist -18.9495
rhand -20.3779 -37.1888
rfingers 7.12502
rthumb 5.975 -67.0845
lclavicle -9.54166e-015 1.44119e-013
lhumerus 42.7473 -20.6219 59.8186
lradius 37.8841
lwrist 26.6889
lhand -19.3313 -29.8282
lfingers 7.12502
lthumb 6.98539 0.0365817
rfemur -69.1026 -8.64873 4.69782
rtibia 81.1535
rfoot -34.8694 -2.84602
rtoes 7.50757
lfemur 126.847 175.092 169.669
ltibia 62.5261
lfoot -30.5712 15.9086
ltoes -72.0044
251
root 9.87086 15.2582 24.2425 226.913 -65.6229 156.461
lowerback 28.4921 -7.73509 2.98425
upperback 11.8555 -10.4784 4.58664
thorax -1.65683 -5.82431 6.38147
lowerneck -7.67802 1.97192 -4.42984
upperneck 1.62406 2.65293 7.65805
head 1.70728 1.43595 3.3895
rclavicle -3.8266e-014 9.55657e-014
rhumerus -10.9586 16.5655 -71.9842
rradius 65.862
rwrist -10.9606
rhand -24.2166 -33.9859
rfingers 7.12502
rthumb 2.26818 -63.9536
lclavicle -3.8266e-014 9.55657e-014
lhumerus 37.9879 -28.0035 65.2628
lradius 43.408
lwrist 25.4345
lhand -18.1576 -32.4086
lfingers 7.12502
lthumb 8.11827 -2.58452
rfemur -65.9079 -7.5198 4.37547
rtibia 77.7159
rfoot -31.0352 -5.32537
rtoes 0.908368
lfemur 130.503 174.951 170.399
ltibia 58.4399
lfoot -32.0608 5.27903
ltoes -68.6852
